<?xml version="1.0"?>
<svg xmlns="http://www.w3.org/2000/svg" height="512px" viewBox="-16 0 512 512" width="512px" class=""><g><path d="m120 332h90v30h-90zm0 0" data-original="#000000" class="active-path" data-old_color="#E6DDDD" fill="#FFFBFB"/><path d="m120 271h240v30h-240zm0 0" data-original="#000000" class="active-path" data-old_color="#E6DDDD" fill="#FFFBFB"/><path d="m120 211h240v30h-240zm0 0" data-original="#000000" class="active-path" data-old_color="#E6DDDD" fill="#FFFBFB"/><path d="m120 150h240v30h-240zm0 0" data-original="#000000" class="active-path" data-old_color="#E6DDDD" fill="#FFFBFB"/><path d="m240 90h90v30h-90zm0 0" data-original="#000000" class="active-path" data-old_color="#E6DDDD" fill="#FFFBFB"/><path d="m480 362h-60v-362h-261.214844l-98.785156 98.785156v263.214844h-60v150h480zm-30 30v30h-30v-30zm-60 30h-300v-302h90v-90h210zm-278.785156-332 38.785156-38.785156v38.785156zm-51.214844 302v30h-30v-30zm-30 90v-30h420v30zm0 0" data-original="#000000" class="active-path" data-old_color="#E6DDDD" fill="#FFFBFB"/></g> </svg>
