<svg id="Layer_1" data-name="Layer 1" xmlns="http://www.w3.org/2000/svg" viewBox="0 0 841.89 595.28"><defs><style>.cls-1,.cls-4,.cls-5{fill:none;}.cls-1,.cls-11,.cls-4,.cls-5,.cls-6,.cls-8,.cls-9{stroke:#000;}.cls-1,.cls-6{stroke-miterlimit:10;}.cls-1,.cls-11,.cls-4,.cls-6,.cls-9{stroke-width:2px;}.cls-2{fill:#9b9896;}.cls-3{fill:#96938f;}.cls-11,.cls-4,.cls-5,.cls-8,.cls-9{stroke-linecap:round;stroke-linejoin:round;}.cls-5{stroke-width:3px;}.cls-6{fill:#a39f9e;}.cls-7{fill:#9a9693;}.cls-10{fill:#94938d;}.cls-11,.cls-12{fill:#a39c95;}</style></defs><title>pos3</title><path class="cls-1" d="M180.36,370.18s57.79,12.13,179.67,2.63c0,0,135.62.38,152.5.5,0,0,138,.75,139.75.37"/><path class="cls-2" d="M284,433.93s-36.13-11.25-71.25,0c0,0-21.88,8.82-11.75,28.5,0,0,14.51,29.38,40.16,41.5,0,0,22.28,9.44,36.21,13.5,0,0,27.44,5.25,36.25,15.63s34.19,29.62,57.88,29.87c0,0,19.81,1.19,52-17.12,0,0,34.81-19.25,58-20.38,0,0,12.44,1.94,29.62-16A33.15,33.15,0,0,1,524,502.18s4.06-.81,5.37-12.12c0,0,1.19-13.81-10.87-18.13l-17.12-5-1.55,12.53s-8.24,3.79-2.95,14.76c0,0,5.45,13.79-7.88,14.21a38.92,38.92,0,0,0-13.84,3.26s-6.7,1.34-10.06,0c0,0-14.15,7.61-26.43,8.67,0,0-7,7.5-19.67,4.17L408.19,529,404.52,534s-10.24.4-18.33,5.23c0,0-16.31,4.07-30-14.13,0,0-8.88-13.12-34.3-8.53a111.28,111.28,0,0,1-20-3.34s-4.29-1.66-8.92-7.33c0,0-17.25-11.66-18.25-20.75l1-18.81-2.47-16.11L277,438.75S280.36,431.77,284,433.93Z"/><circle class="cls-3" cx="383.53" cy="244.83" r="6.17"/><path class="cls-4" d="M405,406.68S372.28,409,350.36,410c0,0-28.5.83-33.67,5.33a52,52,0,0,1-19.16,6.5s-16.84,6.75-21.67,19.33c0,0-7,11.5,1.83,29.84,0,0,4.5,11.41,30.34,16a140.14,140.14,0,0,0,44.33,5.16s21.92-1.16,34.67,11c0,0,9.75,10.59,28.66,1.67,0,0,38.67-19.58,59.17-18.17,0,0,20.58-3.75,24.67-19.33,0,0,8.75-26.42,2.83-35.33,0,0-5.79-22.79-54.83-23.84C447.53,408.18,421.69,407.52,405,406.68Z"/><path class="cls-4" d="M504.42,442.68,499,486.18s.66,11.92-14,18.34c0,0-16.5,4.08-23.34,9.33,0,0-16.91,7.75-25.5,6.33,0,0-4.75-1.83-17.16,4.34,0,0-5.67,4.25-10.84,4.5a37.53,37.53,0,0,0-5.33,8s-2.17,6.91-15.17,0c0,0-15.5-13.75-33.16-11.84,0,0-12.5-.75-29.34-10.16,0,0-7.16-3.42-18,.83,0,0-8.91,3.92-14.16-8.33,0,0-3-7.17-13.17-9.5,0,0-5.5-1.92-8.33-9.17"/><line class="cls-4" x1="274.03" y1="460.48" x2="273.23" y2="498.18"/><path class="cls-5" d="M313,209.68s29.5,62.25,26.5,127.5c0,0,2.41,23.17,10.83,72.84,0,0,3.67,27.66-7.83,32.66"/><path class="cls-4" d="M274,237.68s11.4,23.25-.8,38"/><path class="cls-4" d="M379.53,232.68s-11.75,18.75,0,43"/><path class="cls-4" d="M270.36,239.52s29.75,11.83,74.67,1.16c0,0,21.33-6.08,38.5-1.16"/><path class="cls-4" d="M268.86,271.52a128.29,128.29,0,0,1,31.67-3.5s21.5,3.66,39.66-1.84c0,0,18.25-6.66,31.84-1.5"/><path class="cls-4" d="M274.76,273.61s29.43-2.23,34.1,0a75.3,75.3,0,0,0,37.67-3.26s21.41-5.44,35.16,2.15"/><path class="cls-4" d="M417.28,251.31s.24,13-3.42,18.87"/><path class="cls-4" d="M392,205.18s35.19-11.62,57.87-5.75"/><path class="cls-6" d="M433,190.66l-29.15,3.27s-6-9.31,3.67-10.87c0,0,5.29-1.38,6.33,2.24,0,0,4.05,5.87,9.29-2.5,0,0,9-5.31,9.5,2.38A21.51,21.51,0,0,0,433,190.66Z"/><path class="cls-4" d="M403.86,193.93c-3.85,3.31,0,7.58,0,7.58s-4,25.67,10.17,38a24.35,24.35,0,0,0,5.16,3.34l1.53.45a5.71,5.71,0,0,1-1.53-.45s.81,7-1.91,8.45c0,0-1.46-1-10.58,18.38,0,0-9.59,17.46-13.92,37,0,0-3.54,12.92-2.33,37.08"/><path class="cls-4" d="M388.78,344.76l1.67-1,7-1.5s-3.34-43.91,16.41-72.08c0,0-1.41,32-11.83,54.33,0,0,1.58,3.42,17.5,3.17,0,0,20.25-.5,23.83,1.67,0,0-5-12.34-5.16-43.67a110.42,110.42,0,0,0-3.17-20.5s36.67,20.83,69.5,4.33v-6s-44.08,14.84-73-11.83l.92,3.57,2.55,9.8"/><path class="cls-4" d="M435,265.18l0-.13a100.67,100.67,0,0,0-2.55-9.8,34,34,0,0,0-2.73-6.62,6,6,0,0,1,1.93-8.11l.18-.11a18.81,18.81,0,0,0,9.47-14.66,48.34,48.34,0,0,0-5.6-27.24,27.71,27.71,0,0,1-2.69-7.85"/><line class="cls-4" x1="433.02" y1="190.66" x2="433.01" y2="190.66"/><circle cx="413.31" cy="210.78" r="1.53"/><circle cx="431.06" cy="210.56" r="1.53"/><path d="M424.65,217s-3.43,5.65-1.18,8.31S426.59,220,424.65,217Z"/><path class="cls-5" d="M420.34,231.81a6.64,6.64,0,0,0,7.69,1.31"/><circle class="cls-7" cx="434.07" cy="218.48" r="3.39"/><circle class="cls-7" cx="412.13" cy="219.42" r="3.39"/><path class="cls-1" d="M403.38,212.09s-8.48,6.41.9,10.72"/><path class="cls-1" d="M439.67,210.15s9.67,4.41,1.45,10.66"/><path class="cls-4" d="M421.19,247.6s5.9,4.18,7.84-.67"/><polygon class="cls-8" points="422.11 249.27 423.28 252.43 419.69 257.27 424.18 272.02 428.03 256.77 425.11 252.35 426.03 249.27 422.11 249.27"/><path class="cls-9" d="M424.53,278.18s-1,32.42.5,37.09"/><circle cx="424.76" cy="289.91" r="2.4"/><circle cx="424.18" cy="305.08" r="2.4"/><path class="cls-10" d="M388.11,462.89a7.48,7.48,0,0,1-2.12-3.56c-.84-3.27-1.38-9.17,5.12-10.06,0,0,10.77-1.41,14.55-.87l.37.07a109,109,0,0,0,26,1.46h.59a17.94,17.94,0,0,0,11.4-4.08s9.12-6.54,22.58,3.33c0,0,16.33,9.34,4.25,16.42,0,0-4.17,3.62-20.25,4.08a178.3,178.3,0,0,0-23.78,2.87l-.55.11c-2,.52-16,3.8-26.17-1.56C400.11,471.1,395.16,469.49,388.11,462.89Z"/><path class="cls-9" d="M416.65,460.71c-3.07-1.44-10.37,2.06-10.37,2.06-10.87,3-12-2.65-12-2.65-.91-5.11,6.31-5.6,6.31-5.6a7.39,7.39,0,0,0,5.89-4s8.77,5.92,12.86-.6c0,.45,0,.69,0,.69.71.5,1.79,4.58,1.79,4.58C422.37,462,416.65,460.71,416.65,460.71Z"/><path class="cls-11" d="M419.34,449.91c-4.09,6.52-12.86.6-12.86.6a149.76,149.76,0,0,0-1-32.83c-1.91-17.42,0-42,0-42,2.3-31.13,0-48.5,0-48.5l12.9.51c1.71,3.18.54,51.74,0,59.07C417.86,393.62,419.17,443.45,419.34,449.91Z"/><path class="cls-9" d="M459.28,465.1c-5,3.71-9.5-1.46-9.5-1.46-3.54-4.71-13.33-6.09-13.33-6.09-4.05-3.59,2.91-7.64,2.91-7.64s11.64,4.12,11.24,0l.26,2.69c1.84,2.75,6.25,3.33,6.25,3.33C464.53,459.14,459.28,465.1,459.28,465.1Z"/><path class="cls-11" d="M439.36,449.91c-.66-2.44-5-48.73-5-48.73-1.25-15.33-6.83-73.53-6.83-73.53l11.36.61L450.6,449.91C451,454,439.36,449.91,439.36,449.91Z"/><path class="cls-4" d="M390.45,343.76s1.54,9.84,6,9.34,4.14-3,1-10.84Z"/><path class="cls-4" d="M398.66,345.44l3.7,1.33s2.64,2.17,0,2.33l-2.64.16Z"/><path class="cls-4" d="M504.53,263.51l2.58.92.75.42-1.25-2.92s-.75-4.54,3.67,0l2.16,3.5-2.16-3.5s-.46-4,3.41-.25l3,3.75s7,6.38-12.16,4.08Z"/><path class="cls-5" d="M576.69,217.84s-155,85.34-378.34,324.84"/><circle class="cls-3" cx="349.03" cy="194.52" r="10.67"/><circle class="cls-3" cx="475.19" cy="133.52" r="6.17"/><circle class="cls-3" cx="444.43" cy="126.18" r="6.17"/><circle class="cls-3" cx="320.44" cy="160.85" r="6.17"/><circle class="cls-3" cx="434.07" cy="156.68" r="19"/><circle class="cls-3" cx="383.69" cy="168.27" r="2.71"/><circle class="cls-3" cx="429.03" cy="103.02" r="2.71"/><circle class="cls-3" cx="390.78" cy="107.68" r="2.71"/><circle class="cls-3" cx="487.11" cy="83.47" r="2.71"/><circle class="cls-3" cx="459.94" cy="105.72" r="2.71"/><circle class="cls-3" cx="336.94" cy="212.09" r="2.71"/><circle class="cls-3" cx="392.03" cy="212.31" r="2.71"/><circle class="cls-3" cx="376.28" cy="226.87" r="2.71"/><circle class="cls-3" cx="387.74" cy="228.75" r="1.58"/><circle class="cls-3" cx="403.59" cy="177.27" r="1.58"/><circle class="cls-3" cx="390.2" cy="203.6" r="1.58"/><circle class="cls-3" cx="402.69" cy="170.64" r="1.58"/><circle class="cls-3" cx="398.94" cy="125.77" r="1.58"/><circle class="cls-3" cx="383.73" cy="87.77" r="1.58"/><circle class="cls-3" cx="441.44" cy="100.77" r="1.58"/><circle class="cls-3" cx="385.31" cy="102.35" r="1.58"/><circle class="cls-3" cx="420.68" cy="131.93" r="1.58"/><circle class="cls-3" cx="476.78" cy="102.35" r="1.58"/><circle class="cls-3" cx="392.69" cy="159.68" r="1.58"/><circle class="cls-3" cx="417.51" cy="173.02" r="1.58"/><circle class="cls-3" cx="392.03" cy="230.91" r="1.58"/><circle class="cls-3" cx="363.32" cy="231.62" r="1.58"/><path class="cls-4" d="M197.19,148.93s-15.12-6.58-1.5-17.66c0,0,5.13-4,18.67,3,0,0,11.92-14.13,26.08,2.16,0,0,2.8-5,8-2.41,0,0,11.75-13.05,19.25,7.08,0,0,12.8-.79,11.84,6.92,0,0-2.13,5.25-7,5.33,0,0,1.46,8.83-13.67,4.33,0,0-11.83,12.21-26.25.17,0,0-5.29,3.75-13.75.25C218.86,158.1,198.19,168.81,197.19,148.93Z"/><path class="cls-4" d="M422,40.31s-7.69-20,15.75-16.5A4.55,4.55,0,0,1,442,28.56c0,4.5-6.06,3.19-4.25-4.75s19.25-9.06,24.75,5.62c0,0,6.87-14.12,18-1.62,0,0,8,10.55,12.88,2.52A13.31,13.31,0,0,1,496,27.19c2.08-1.79,5.45-3.73,8.28-.7A6.58,6.58,0,0,1,505.85,30c.47,2.81,1.89,8.85,5.36,8a6.73,6.73,0,0,1,3.67,0c3.28,1,8.34,3.71,3.52,9.42,0,0-.75.63-1.73,1.35a30.71,30.71,0,0,0-6,6c-3.38,4.4-9.84,10-17.32,2,0,0-6.21,14.84-20.46-2.83,0,0-8.42,18.87-21.75,1.75,0,0-5.33,15.17-15.92,0,0,0-3.7-7.29-11.41-1.75,0,0-10,3.71-11-6.33C412.78,47.52,410.94,41.31,422,40.31Z"/><path class="cls-4" d="M564,167.77s-12.75-5-4.25-9.5c0,0,6.08-3.38,10.91-.84,0,0,6-6.6,10.84-.94,0,0,11.58-10.06,21.25,2.19,0,0,7-2.41,6.08,5.25,0,0,6.58,1.25,2.92,6.42,0,0-6-2.21-7.67,4.58,0,0-6.08,7.71-17.25-.5,0,0-4.21,6.54-9.83.5C577,174.93,562.74,177.22,564,167.77Z"/><path class="cls-4" d="M661.53,102.35s-18.75-14.71-27.5,3.37c0,0-8.38,11.09,7.75,7.21,0,0,10-2.48,13,.83"/><path class="cls-4" d="M180.36,298.22s32.83,31.5,50.33,54.9c0,0,13.5,20.9,29,22.9"/><path class="cls-4" d="M210.36,349.26s20.17.42,34.67-22.08c0,0,13-24.66,36.33,2.84,0,0,41.17,38.16,58,41.33"/><path class="cls-4" d="M587.69,373.68A89.74,89.74,0,0,0,601,362.05a56.3,56.3,0,0,0,5.58-7.27c1.88-2.85,6.61-8.16,13.66-3.48a14.89,14.89,0,0,1,3.65,3.52c3,3.93,11.94,15.13,20.48,18.86"/><path class="cls-12" d="M491.15,372.81s17.25-46.38,42.75,0"/></svg>