<svg id="Layer_1" data-name="Layer 1" xmlns="http://www.w3.org/2000/svg" viewBox="0 0 628.89 649.28"><defs><style>.cls-1,.cls-14,.cls-15,.cls-6{fill:none;}.cls-1,.cls-10,.cls-11,.cls-12,.cls-14,.cls-15,.cls-3{stroke:#000;}.cls-1,.cls-15,.cls-3{stroke-linecap:round;stroke-linejoin:round;}.cls-1,.cls-14,.cls-3,.cls-6{stroke-width:2px;}.cls-2{fill:#96938e;}.cls-4{fill:#202020;}.cls-5,.cls-7,.cls-8,.cls-9{fill:#767e83;}.cls-6{stroke:#767e83;}.cls-10,.cls-11,.cls-12,.cls-14,.cls-6{stroke-miterlimit:10;}.cls-7{font-size:22.74px;}.cls-7,.cls-8,.cls-9{font-family:News701BT-BoldA, News701 BT;font-weight:700;}.cls-8{font-size:24.31px;}.cls-9{font-size:30.83px;}.cls-10{fill:#7d7878;}.cls-11{fill:#b5b1ae;}.cls-12{fill:#989590;}.cls-13{fill:#8e8c8b;}.cls-16{fill:#a7a3a1;}</style></defs><title>pos6</title><path class="cls-1" d="M277.61,151.45s4.5,29.63,19,36.75c0,0,6.57,1.32,2,8.5,0,0-20.12,66-43,86.5l9.5,5s26.25-35.12,31.25-64l2.25-27.5"/><path class="cls-1" d="M296.36,224.2s-.75,36.38-8,52"/><path class="cls-1" d="M285.61,271.58s18.38,13,53-2.13c0,0-7.75-37.87-17.25-55.75,0,0-3.75-8.75-9.25-21.5"/><path class="cls-1" d="M316,201.22s39.49,13.11,40.61-22.52c0,0-.87-24.37-35.5-38.5l-2.75,7.25s30.75,13.63,29.25,29c0,0,2.13,23.5-28.75,15.75,0,0-6.37-2.62-7.5-2.12s-3.25-1.19,0-3.63c0,0,14.4-4.64,11.63-19-.19-.94-.32-1.89-.44-2.84a80.34,80.34,0,0,0-4.19-17.12"/><path class="cls-1" d="M279.51,160.12s-6.2,2.58-1.59,9.5c0,0,2.41,2.31,5.18,1.24"/><path class="cls-1" d="M319.47,150.63s9.62,3.15,2.73,11.52"/><circle cx="289.36" cy="154.08" r="2.31"/><circle cx="311.36" cy="151.45" r="2.31"/><circle class="cls-2" cx="314.42" cy="161.33" r="3.47"/><circle class="cls-2" cx="290.53" cy="164.8" r="3.47"/><path d="M303.24,161.33s-1.81,5.69.44,7.44C303.68,168.77,308.36,168.92,303.24,161.33Z"/><path class="cls-1" d="M301.05,176.08s6.13,3.62,9.06-.75"/><path class="cls-1" d="M321.11,140.2s-7.08-4.37-11.47,0c0,0-6.78,4.06-2.53,6.5,0,0,2.78.5,4.36-.51a5.73,5.73,0,0,1,2.91-1c1.54,0,3.48.21,4.29,1.47"/><path class="cls-1" d="M256.17,283.5s-9.51,6-9.22,6.7,5-.7,5.12-1c0,0-7.29,3.23-6.87,4.54,0,0,1.21,2.23,7.87-1.83,0,0-7.33,3.71-5.87,4.79,0,0,2.52.57,8-2.87,0,0,4.29-3.44,5.71,2,0,0,2.43,2.37,2.2-4.25,0,0-.51-2.78.85-3.94"/><path class="cls-1" d="M301,193.33s8,1.69,11.12,0c0,0,3.75,16.62,1.5,30.12C313.61,223.45,300.68,204.14,301,193.33Z"/><path d="M309.11,197l.52-3-6.56-.3.41.71,1.5,2.06.22,11.94,8.41,15.06.26-18.51Zm-1.63.31a1.1,1.1,0,1,1-1,1.1A1,1,0,0,1,307.48,197.26Zm-1,9a1,1,0,1,1,2,0,1,1,0,1,1-2,0Zm2.5,6.31a1.1,1.1,0,1,1,1-1.09A1,1,0,0,1,309,212.57Zm1-7.12a1.1,1.1,0,1,1,1-1.1A1,1,0,0,1,310,205.45Zm2.13,5.18a1.1,1.1,0,1,1,1-1.09A1,1,0,0,1,312.11,210.63Z"/><path class="cls-1" d="M313.61,223.45S321.43,253.7,322,266"/><circle cx="316.65" cy="235.98" r="3.08"/><circle cx="319.74" cy="253.73" r="3.08"/><path class="cls-1" d="M336.23,300c-10.18-6.36-24.83-16.61-24.12-22.57"/><path class="cls-1" d="M363,374.73c-.05,2.17-.12,3.86-.18,4.94A34.37,34.37,0,0,1,350,379c0-.35-.06-.55-.06-.55.18-1,.33-2.12.44-3.28A17.48,17.48,0,0,0,363,374.73Z"/><path class="cls-1" d="M334.41,312.71c6.15,5.16,13.12,13.57,14.2,25.74,0,0,3.2,22.79,1.81,36.72"/><path class="cls-3" d="M359.3,390.51c-7.16,0-8.92-9.16-9.26-11.51a34.37,34.37,0,0,0,12.78.67c-.05.87-.08,1.34-.08,1.34l5.56,5.19C376.11,393.73,359.3,390.51,359.3,390.51Z"/><path class="cls-1" d="M345.22,305.66a25.74,25.74,0,0,1,5.78,6.09c11.72,17.47,12.32,49.48,12,63"/><path class="cls-1" d="M294.68,275.28s3.8,20.05,29.93,31.05c0,0,.43.19,1.17.57"/><path class="cls-3" d="M305.44,343.78a11.06,11.06,0,0,1-3.75-5.58c-3.07-3.29-1-8.83.11-11.16a55.06,55.06,0,0,0,6.51,4.83,3.82,3.82,0,0,0-.45,2.08c2.54,4.17,4.92,9.17,4.92,9.17C315.32,349.08,305.44,343.78,305.44,343.78Z"/><path class="cls-1" d="M318.69,276.2s49.67,2.42,36.5,12c0,0-8.64,5.17-19,11.82l-10.45,6.88c-8.84,6-17.27,12.14-21.32,16.38"/><path class="cls-1" d="M336.51,270.34a261,261,0,0,1,27.18,2.94c21,4.34,5.67,14.92,5.67,14.92s-11.17,8.68-24.14,17.46l-10.82,7c-3.12,1.93-6.2,3.74-9.12,5.32-8.36,4.52-12.73,8.18-15,10.85"/><path class="cls-1" d="M310.28,328.88a12.27,12.27,0,0,0-2,3A55.06,55.06,0,0,1,301.8,327c.32-.68.56-1.09.56-1.09a13.71,13.71,0,0,1,2.1-2.67A38,38,0,0,0,310.28,328.88Z"/><path class="cls-4" d="M273.37,137.16a10.54,10.54,0,0,1,1.5,1.47,24.67,24.67,0,0,1,4.4,7.34c.41,1.08.61,1.81.61,1.81-1.3.06-2.56.17-3.84.33A22.36,22.36,0,0,0,273.37,137.16Z"/><path class="cls-4" d="M280,137.71a21.59,21.59,0,0,1,2.57,4.14,31.67,31.67,0,0,1,1.26,3c.29.83.45,1.38.45,1.38-.84,0-1.66,0-2.49.07A27.82,27.82,0,0,0,280,137.71Z"/><path class="cls-4" d="M280.87,128.66a17.5,17.5,0,0,1,2.19,2.13,34.7,34.7,0,0,1,3.75,5,37,37,0,0,1,2.79,5.49c.62,1.55.93,2.62.93,2.62-1.33-.08-2.67-.1-4-.08A34.12,34.12,0,0,0,280.87,128.66Z"/><path class="cls-4" d="M289.57,130.51a33,33,0,0,1,3.6,5.77,43.17,43.17,0,0,1,1.8,4.14c.42,1.15.66,1.93.66,1.93-.87-.09-1.73-.17-2.6-.23A40.14,40.14,0,0,0,289.57,130.51Z"/><path class="cls-4" d="M290,120a26.47,26.47,0,0,1,2.88,2.93,47.2,47.2,0,0,1,4.94,6.77,48.65,48.65,0,0,1,3.64,7.42c.41,1,.72,1.93.92,2.56l.31,1c-1.4-.26-2.77-.48-4.16-.64A46.67,46.67,0,0,0,290,120Z"/><path class="cls-4" d="M301.94,118a24.89,24.89,0,0,1,2.88,2.92,47.34,47.34,0,0,1,4.94,6.78,48.14,48.14,0,0,1,3.64,7.41c.41,1.05.72,1.94.92,2.56l.31,1c-1.4-.27-2.77-.49-4.16-.65A46.63,46.63,0,0,0,301.94,118Z"/><path class="cls-1" d="M168.36,290.1s66.3,4.27,76,3"/><path class="cls-1" d="M263.1,293.35s35-3.56,37-6.31"/><path class="cls-1" d="M315.87,284.63s20-3.43,21.66-6.68"/><path class="cls-1" d="M359.71,272.67s16.82-7.05,18.49-7.38l-5.67-6.5s-21.5,9.41-33.92,10.66"/><path class="cls-1" d="M268.45,283.5s26.43-.49,27.56-4.08"/><path class="cls-1" d="M251.65,286.46s-64.79,5.08-95.54-3"/><path class="cls-1" d="M159.49,280.45s17.31,32.07,8.87,66.5c0,0,12.13,3.69,17,6.5,0,0,74.13-20.12,80.5-20.25,0,0,31.63-7.19,35.94-6.16"/><path class="cls-1" d="M180.36,291.09S197.11,318.2,189,351.7c0,0-2,5.25-5.25,4.38"/><path class="cls-1" d="M317.8,323.28s21.55-5,23.9-2.86"/><path class="cls-1" d="M355.1,319.39s24.45-2.81,28.14-.81"/><path class="cls-1" d="M380.86,321.59s11.13-31.15,42.75-40.3c0,0-23.7.83-45.41-16"/><path class="cls-1" d="M293,213.34s-57.16,50.36-119.69,12a23,23,0,0,1-5.66-4.88c-10.6-12.71-44.93-63.81,32.71-118.65,0,0-58,21.23-64.92,71a48.75,48.75,0,0,0,4.86,28.73c8.4,16.61,27.56,44,62.73,44.24C203,245.79,255.38,243.55,293,213.34Z"/><path class="cls-1" d="M216,99.29s51.8-4.67,71,24.33"/><circle class="cls-5" cx="234.2" cy="173.79" r="6.17"/><path class="cls-6" d="M231.36,170s-10.5-19.24-25.25-20.8c0,0-20.12-3.2-32.25-17.2,0,0-9.16-14.54-9.83-24.75,0,0-6.35-33.93-43.54-35.25"/><path class="cls-5" d="M120.67,65.62c.09,4.56-.35,12.7-4.18,16.71,0,0-7.25-4.13-11.13-10-2.85-4.33,6.73-7.71,12-9.19A2.63,2.63,0,0,1,120.67,65.62Z"/><text class="cls-7" transform="translate(219.95 130.51)">N</text><text class="cls-8" transform="translate(164.81 193.72) scale(1.06 1)">w</text><text class="cls-9" transform="translate(234.2 225.53) scale(0.98 1)">s</text><path class="cls-1" d="M78.49,180s6.19-4.5,7.25,1.25c0,0,2.47,4.39,5.5-1.46,0,0,8.69-12.63,20.06-3.22,0,0,9,4.57,12.38-2.73,0,0,1.87-6.12,10.43-2.52"/><path class="cls-1" d="M77.36,196.45l3.57-1s1.06,11.72,11.81,6c0,0-3.25,15.75,17.87,7.69,0,0-.4,27,26,6.25,0,0,10.35,8.94,15.75,5.75"/><line class="cls-1" x1="244.36" y1="239.07" x2="242.6" y2="287.04"/><line class="cls-1" x1="247.96" y1="236.89" x2="248.72" y2="286.67"/><line class="cls-1" x1="241.06" y1="338.79" x2="241.06" y2="387.45"/><line class="cls-1" x1="250.27" y1="336.5" x2="253.03" y2="388.95"/><path class="cls-1" d="M182.7,384.12s85.83,10.8,134,1"/><path class="cls-1" d="M189.53,387.45s57.83,18.37,131.5,1.77l-5.33-3.92"/><path class="cls-1" d="M196.2,390.74s3.41,28.21-6.67,41.71c0,0,116.08-.58,129.67-7.16"/><path class="cls-1" d="M319.2,389.63s-7.92,30.49,0,38.49"/><path class="cls-1" d="M184.36,380s6.17,36.16-2.5,48.16"/><path class="cls-1" d="M180.36,425.83s9.15,3.69,9.17,6.62"/><circle class="cls-10" cx="225.49" cy="412.59" r="8.48"/><circle class="cls-11" cx="255.99" cy="413.59" r="8.48"/><circle class="cls-12" cx="285.73" cy="415.1" r="8.48"/><path class="cls-13" d="M286.87,470.49s-6.92,20.71.83,33c0,0-65.5-21.25-119-16.5,0,0-7.82-8.86-23.82-13.53,0,0,32.33-2.26,37.83-15.51C182.71,457.91,249.62,476.66,286.87,470.49Z"/><path class="cls-1" d="M289.36,466.12S280,491.2,287.7,503.45c0,0-65.5-21.25-119-16.5,0,0-7.17-13.83-23.17-18.5,0,0,27.67-.91,33.17-14.16C178.7,454.29,252.11,472.29,289.36,466.12Z"/><path class="cls-1" d="M177.43,456.61s80.93,20.68,114.27,15.84"/><line class="cls-14" x1="241.53" y1="432.45" x2="242.61" y2="464.9"/><line class="cls-14" x1="255.99" y1="431.12" x2="259.7" y2="467.08"/><path class="cls-13" d="M232.53,595.79s43.79,11,38.83-16.88c33,0,23.67,16,23.67,16-21.25,27-114.33,19.17-114.33,19.17-29.25-3.75-19-19.17-19-19.17,7.41-10.58,74.36-9.61,74.36-9.61"/><path class="cls-1" d="M242.51,492.29s2.77,100.58-16,111.16"/><path class="cls-1" d="M284.36,594.79c-21.25,4.83-20.68-97.92-20.68-97.92"/><ellipse class="cls-13" cx="115.86" cy="618.58" rx="13.75" ry="4.19"/><ellipse class="cls-13" cx="318.8" cy="584.09" rx="7.94" ry="2.25"/><path class="cls-1" d="M582.11,196s-8,1.25-6.75-9.75c0,0-13.87,7.69-32.62-6.62,0,0-15.31,7.44-17.75-5,0,0-20.13-2.75-15.25-17,0,0,2.25-5.56,15.12-5.75,0,0,4.88-13.31,25.38-4.25,0,0,.81-13,12-5,0,0,11.44-14.5,19.87-10.38"/><path class="cls-1" d="M490.36,275.58s9.5-11.38,21,3.37c0,0,4.44-6.75,10.63-1.12,0,0,10.87-11,19.75-.38,0,0,4.31,6.07-.75,12,0,0,4.12,14.19-12.38,9.63,0,0-12.62,18.12-22.87-3.25,0,0-8.13,7.37-10.5-1.13,0,0-8.3,2.26-12.29-3.58a9.1,9.1,0,0,1-.25-9.61A12.87,12.87,0,0,1,490.36,275.58Z"/><path class="cls-1" d="M71.36,542s164.21-7.62,170.17-6"/><path class="cls-1" d="M265,535.73S431,523.2,578.11,533"/><path class="cls-1" d="M97.86,545.83s5.34,1.69,4-7a16.22,16.22,0,0,1-.16-3.62c.31-3.9,1.4-11.66,5.16-9.05a4.81,4.81,0,0,1,1.81,2.6c.9,3,3.69,11,9,16.56"/><path class="cls-1" d="M142.24,542s1.75-9.87,8.12-10.12c0,0,4-.25,2.58-6.31a18.27,18.27,0,0,1-.52-3.61c-.12-4,.21-11.7,4.76-10.08,0,0,6.72,1.88,7.06,11.5a12.21,12.21,0,0,1-.13,2.34c-.28,1.85-.45,7,6.5,6.1,0,0,11.44-2.1,11.32,5.87"/><line class="cls-1" x1="157.2" y1="521.45" x2="157.2" y2="525.64"/><path class="cls-1" d="M374.86,535.73s6.75-11.11,4.34-36.28c0,0-2.84-28.41,7-23.16,0,0,8.58,3.41,6,32.83,0,0-2.34,14.73,2.66,23.36"/><path class="cls-3" d="M383.3,475.72a92.36,92.36,0,0,1,0-18.1s4.61-6.37,2.9,18.67Z"/><circle class="cls-15" cx="384.71" cy="486.12" r="3.95"/><path class="cls-1" d="M383.28,497l1.08,3.83h2.92s0-4.71,0-4.33"/><line class="cls-1" x1="388.66" y1="506.62" x2="386.58" y2="509.79"/><ellipse class="cls-3" cx="385.2" cy="530.95" rx="0.83" ry="3.17"/><path class="cls-1" d="M414.2,534.12s-5.38-29.87,6.66-29.67c0,0,24.38,6.75,38.5,2.17,0,0,15.59-3.67,16.59,13.5l1,13.17"/><ellipse class="cls-3" cx="442.2" cy="528.91" rx="2.17" ry="4.54"/><line class="cls-1" x1="431.53" y1="511.79" x2="434.53" y2="459.45"/><path class="cls-1" d="M431.53,456.9S459.11,442,459,453.62c0,0-9.36,47.46-5.8,54.27"/><path class="cls-1" d="M441,452.5s-3.17-14.63,6.25-19.55c0,0,8.08-.24,5.83,16.22"/><path class="cls-1" d="M440,412.79s8.08,11.33,7.17,20.16"/><line class="cls-1" x1="444.36" y1="458.12" x2="443.65" y2="467.29"/><ellipse class="cls-1" cx="447.73" cy="478.79" rx="0.8" ry="4.17"/><path class="cls-1" d="M491.53,536.62s-2.75-35.58,5.67-22.5c0,0,7.91,16.5,6.16-2.33l-1.5-7.34s9.92-4.29,10.67,3.44c0,0-1.42,7.65,3.83,6.9,0,0,4.17.5,3,7.33,0,0,2.75,5.48,5.34-2.18,0,0,6.33-7.42,7.66,0,0,0-3,15.89,1.67,15.79"/><line class="cls-1" x1="501.36" y1="525.45" x2="501.36" y2="530.95"/><line class="cls-1" x1="512.57" y1="518.45" x2="511.53" y2="525.45"/><line class="cls-1" x1="525.2" y1="525.45" x2="525.86" y2="530.95"/><path class="cls-1" d="M442.2,533.45s25.79,2.25,18.16,9.25c0,0-7.72,6.41-32.25,14.44,0,0-47.16,12.73-20.58,22.48s96,24.79,96.08,25"/><circle class="cls-16" cx="411.8" cy="154.08" r="23.41"/><circle class="cls-16" cx="491.1" cy="224.2" r="11.63"/><circle class="cls-16" cx="400.91" cy="208.57" r="8.22"/><circle class="cls-16" cx="447.27" cy="200.35" r="8.22"/><circle class="cls-16" cx="504.23" cy="64.46" r="7.24"/><circle class="cls-16" cx="516.21" cy="41.63" r="5.12"/><circle class="cls-16" cx="455.49" cy="109.13" r="5.12"/><circle class="cls-16" cx="469.24" cy="85.5" r="5.12"/><circle class="cls-16" cx="482.09" cy="60.38" r="2.56"/><circle class="cls-16" cx="482.95" cy="44.19" r="2.56"/><circle class="cls-16" cx="487.2" cy="73.31" r="2.56"/><circle class="cls-16" cx="489.7" cy="79.67" r="2.56"/><circle class="cls-16" cx="379.88" cy="176.26" r="5.12"/><circle class="cls-16" cx="511.1" cy="203.26" r="5.12"/><circle class="cls-16" cx="488.39" cy="123.93" r="2.56"/><circle class="cls-16" cx="480.39" cy="116.8" r="2.56"/><circle class="cls-16" cx="501.39" cy="115.87" r="2.56"/><circle class="cls-16" cx="484.64" cy="109.8" r="2.56"/><circle class="cls-16" cx="479.53" cy="124.93" r="2.56"/><circle class="cls-16" cx="428.96" cy="110.75" r="2.56"/><circle class="cls-16" cx="420.84" cy="110.75" r="2.56"/><circle class="cls-16" cx="428.34" cy="127.95" r="2.56"/><circle class="cls-16" cx="395.65" cy="131.47" r="2.56"/><circle class="cls-16" cx="381.03" cy="145.53" r="2.56"/><circle class="cls-16" cx="386.14" cy="125.39" r="2.56"/><circle class="cls-16" cx="381.52" cy="114.24" r="2.56"/><circle class="cls-16" cx="371.14" cy="115.87" r="2.56"/><circle class="cls-16" cx="368.02" cy="121.37" r="2.56"/><circle class="cls-16" cx="406.58" cy="102.44" r="2.56"/><circle class="cls-16" cx="419.89" cy="71.7" r="2.56"/><circle class="cls-16" cx="457.21" cy="87.45" r="2.56"/></svg>