<svg id="Layer_1" data-name="Layer 1" xmlns="http://www.w3.org/2000/svg" viewBox="0 0 841.89 595.28"><defs><style>.cls-1{fill:#9a9590;}.cls-2{fill:#9f9a93;}.cls-3{fill:#9d9992;}.cls-4{fill:#9e9c98;}.cls-10,.cls-11,.cls-15,.cls-5,.cls-6,.cls-9{fill:none;}.cls-13,.cls-5,.cls-6{stroke:#231f20;}.cls-10,.cls-13,.cls-15,.cls-17,.cls-5,.cls-6,.cls-9{stroke-linecap:round;}.cls-10,.cls-13,.cls-17,.cls-5,.cls-6,.cls-9{stroke-linejoin:round;}.cls-17,.cls-6,.cls-9{stroke-width:2px;}.cls-13,.cls-7{fill:#231f20;}.cls-8{fill:#8d8a87;}.cls-10,.cls-12,.cls-15,.cls-17,.cls-9{stroke:#000;}.cls-12,.cls-15{stroke-miterlimit:10;}.cls-14{fill:#959491;}.cls-16{fill:#a4a39d;opacity:0.03;}.cls-17{fill:#9a9790;}.cls-18{fill:#818f97;}</style></defs><title>pos7</title><path class="cls-1" d="M273.18,479.37s-45,5.17-54,14.69a3.55,3.55,0,0,0,1.32,5.76c11.37,4.35,58.41,20.52,119.52,16.55,70.42-4.59,134.17-12.75,138.87-29.8-17.81,2.32-79.81,11.86-79.81,11.86"/><path class="cls-2" d="M280.93,496.43s-22.11-22.2,5.06-50.77c0,0,108.32,2,111.82,4.16,0,0-14.05,17.46-1.27,47.95l-58.29-4Z"/><path class="cls-3" d="M402.89,414.7s14.73,12.5-1.21,35.87c0,0,64.38-6,69.13-4.3,0,0,10.06-20-3.75-25C467.06,421.24,407.28,417.32,402.89,414.7Z"/><path class="cls-4" d="M458.23,112.87a23.94,23.94,0,0,1-3,11.7c-6.88-4.38-16.37-6.58-29.47-4,0,0-5.73,1.62-12.86,4a24.17,24.17,0,1,1,45.36-11.61Z"/><path class="cls-5" d="M355.39,40.2s-3.25,23.58,10.17,30.67c0,0,6.94,1.61,4.37,9.83,0,0-12.37,44.31-25.12,53.87"/><path class="cls-5" d="M344.23,130.2s-.13,9.48,24.26,8.34a3.25,3.25,0,0,0,.44,0c2.07-.22,19.33-1.88,20.46,3.61,0,0,3.87-39.24-10.44-64a8.13,8.13,0,0,0-.52-.78c-.82-1.09-3.08-4.62.94-5.81,0,0,10.31-2.58,7.77-19.95,0,0-2.12-12.13-6.75-16.34"/><path class="cls-6" d="M342.56,44.2s41.12-13.75,51.67-9.33"/><path class="cls-5" d="M355.09,48.6s-6.5,6.75,1.26,9.07"/><path class="cls-5" d="M385.51,43.75s8.56,3.8,2.25,8.87"/><circle class="cls-7" cx="364.81" cy="46.7" r="1.49"/><circle class="cls-7" cx="381.02" cy="45.69" r="1.49"/><path class="cls-7" d="M373.18,52.16s3.69,2,2.17,5.87c0,0-1.46,1.36-2.3-1.15a6.51,6.51,0,0,1-.15-3.31Z"/><circle class="cls-8" cx="364.81" cy="53.62" r="2.42"/><circle class="cls-8" cx="382.14" cy="52.16" r="2.42"/><path class="cls-9" d="M370,64s4.94,3.48,7.37.5"/><path class="cls-10" d="M379.13,28.89c.62,2.24,1.09,4.79.4,5.87"/><path class="cls-10" d="M354.43,33.78c2.12,2.64.88,7.19.88,7.19"/><path class="cls-11" d="M382.14,28.87a13.73,13.73,0,0,0-3,0c-.59-2.11-1.32-3.94-1.32-3.94-1.87-4.15-4.31-4-5.95-3.27a5.51,5.51,0,0,0-2.26,2c-3.4,5.29-9,.17-9,.17-.3-.56-1.35-.78-2.4-.85A8.48,8.48,0,0,0,353,24.2a5,5,0,0,0-2.58,3.55,5,5,0,0,0,2.71,5,4.28,4.28,0,0,1,1.26,1.07c-2.45.59-4,1-4,1L347.06,21.7,357.66,14l18.06,1.67S387.81,29.7,382.14,28.87Z"/><path class="cls-12" d="M379.13,28.89c-6.32.53-18.41,3.34-24.7,4.89a4.28,4.28,0,0,0-1.26-1.07,5,5,0,0,1-2.71-5A5,5,0,0,1,353,24.2,8.48,8.48,0,0,1,358.16,23c1,.07,2.1.29,2.4.85,0,0,5.64,5.12,9-.17a5.51,5.51,0,0,1,2.26-2c1.64-.76,4.08-.88,5.95,3.27C377.81,25,378.54,26.78,379.13,28.89Z"/><path class="cls-5" d="M370.5,78l7.93-.65s1.46,17.78,1.3,19.4S373.53,88,370.5,78Z"/><path class="cls-5" d="M379.73,96.78s.41,26.25-3.84,34.42"/><circle class="cls-13" cx="379.1" cy="110.03" r="1.8"/><path class="cls-14" d="M354.64,81.45a1.84,1.84,0,0,1,.3,1,1.83,1.83,0,1,1-2.71-1.6,44.88,44.88,0,0,1-9-3.49,19.1,19.1,0,0,0-6.93-2.15c-6.26-.63-17.32,0-21.52,11.35a73.15,73.15,0,0,1,12.67-3.42.78.78,0,0,1-.22,0,1.86,1.86,0,1,1,.44-.06c5.71-1,12.18-1.18,16.83,1.2a13.42,13.42,0,0,0,2.25,1c2.87.83,9.59,1.9,17.16-2.89A37.51,37.51,0,0,1,354.64,81.45ZM334.8,79.21a1.83,1.83,0,1,1,1.83-1.83A1.83,1.83,0,0,1,334.8,79.21ZM343,82.46a1.83,1.83,0,1,1,1.83-1.83A1.83,1.83,0,0,1,343,82.46Z"/><circle class="cls-13" cx="378.18" cy="122.32" r="1.8"/><path class="cls-5" d="M370,79.51S317,103.64,295.18,123c0,0,4.94,1.37,5,4.87,0,0,55.6-38.21,66.68-37.1"/><path class="cls-5" d="M379,78.16s45.4,8,73-22.13c0,0,2.87,3.84,4.75,4,0,0-24.71,30.06-74.17,25.53"/><path class="cls-13" d="M452,56s4.87-13.71,10.5-2.33c0,0,.91,7.62-5.75,6.33"/><path class="cls-13" d="M266.79,183.58l-.42,8.17c-.57-.1-.87-.17-.87-.17l-.88,1.62c-6.78,10.91-11,3.75-11,3.75-3.65-8.63,10.5-13.31,10.5-13.31.78-1.53,2.44-.06,2.44-.06Z"/><path class="cls-5" d="M266.37,191.75c8.18,1.5,72,11,96-53.15"/><path class="cls-5" d="M266.79,183.58c80.89,2,82.57-47.51,82.57-47.51"/><path class="cls-13" d="M479.14,167.82c-6.75,4.23-14.75-4.33-14.75-4.33-2.66-.68-1.6-2.59-1.06-3.33A37,37,0,0,0,473.7,158C486.18,160.18,479.14,167.82,479.14,167.82Z"/><path class="cls-5" d="M455.2,124.57c16.46,10.45,17.94,33.3,17.94,33.3l.56.1"/><path class="cls-5" d="M389.82,133.79c5.3-3.15,15.05-6.69,23.05-9.31"/><path class="cls-4" d="M449.19,131.7a24.16,24.16,0,0,1-29.63.5C424.68,130.33,440,125.54,449.19,131.7Z"/><path class="cls-5" d="M449.19,131.7a14.3,14.3,0,0,1,4.2,4.37s6.59,7.52,10.17,23.79a3,3,0,0,0-.23.3"/><path class="cls-5" d="M371.23,147s27-4.41,46.61-14.16c0,0,.63-.27,1.72-.67"/><path class="cls-13" d="M295.18,123a12.73,12.73,0,0,0-2.68,5.44s.59,9.28,7.68-.57C300.18,127.82,298.31,123.76,295.18,123Z"/><path class="cls-13" d="M295.18,123s-2-.69-2.68,0-.48,2.31.43,2.54"/><path class="cls-5" d="M298.62,140.7s.35,3.25-3,6.37"/><path class="cls-5" d="M256.31,118.78l30.5-8.5,8.37,38s-30.62,6.25-34,5.25c0,0-.46-22.62-2.16-34.58"/><polyline class="cls-5" points="286.81 110.28 291 110.89 297.43 144.45"/><path class="cls-5" d="M300.18,127.82s1.25,3.24-3.84,4.53"/><path class="cls-5" d="M389.82,133.79c10-6,35.91-13.27,35.91-13.27,44.45-8.59,47.41,37.35,47.41,37.35l.56.1"/><path class="cls-5" d="M371.23,147s27-4.41,46.61-14.16c0,0,26.55-11.35,35.55,3.2,0,0,6.59,7.52,10.17,23.79a3,3,0,0,0-.23.3"/><circle class="cls-4" cx="394.22" cy="158.73" r="7.13"/><circle class="cls-4" cx="425.22" cy="167.28" r="5.21"/><circle class="cls-4" cx="387.09" cy="170.28" r="3"/><circle class="cls-4" cx="466.56" cy="115.66" r="1.67"/><circle class="cls-4" cx="407.06" cy="119" r="1.67"/><path class="cls-9" d="M280.5,494.57c-19.88-17.5,3.31-48.43,3.31-48.43"/><circle class="cls-4" cx="397.06" cy="113.99" r="1.67"/><circle class="cls-4" cx="403.01" cy="125.49" r="1.67"/><circle class="cls-4" cx="476.02" cy="108.99" r="1.67"/><circle class="cls-4" cx="345.89" cy="118.85" r="1.67"/><circle class="cls-4" cx="365.61" cy="158.73" r="1.67"/><circle class="cls-4" cx="365.61" cy="148.74" r="1.67"/><circle class="cls-4" cx="355.39" cy="112.58" r="1.67"/><circle class="cls-4" cx="458.23" cy="102.41" r="1.67"/><path class="cls-15" d="M200.06,58.37s2.92-8.84,12.17,0c0,0,5.45-3.36,10,.89,0,0,13.62-8.47,15.56,3.44,0,0-.22,3.22-2.38,4.06,0,0,1,10.6-8.56,6.63,0,0-9.25,8.9-15.87-2.5,0,0-5.66,4.43-6.88-1.57,0,0-7.22,2.63-10.25-4.18C193.87,65.14,191.37,58.16,200.06,58.37Z"/><path class="cls-10" d="M615.89,72.16C611.81,77,602.56,69,602.56,69c-16.29-11.12-18.25,3.25-18.25,3.25-12.75-21.08-26.25-10.83-26.25-10.83-4.54,2.46-4.83,9.17-4.83,9.17,3.16,6.33,6.2,1,6.08-1.09S554,66.78,554,66.78c-25.34-4.91-17.25,18.59-17.25,18.59s-11.17-.3-9.17,12c0,0,1.41,8.72,16.25,1.31,0,0,5.25-3.56,8.94,3.56,0,0,9.62,14.41,18.25-.62,0,0,18.78,15.18,25.5-4.38,0,0,9.31,13.44,19.06,8.19"/><path class="cls-10" d="M555.68,175.07s16.38-12.87,24.38,0c0,0,8.31-4.18,7.37,3.75,0,0,9.69,6.63-1.62,9.25,0,0-8.19,15.44-22.38,5.5,0,0-7.87,7-11.62-.87,0,0-9.81,8.12-14.25-5.38,0,0-11.94-2.62-4.75-10.5,0,0,6.37-3.5,12.5-1.12C545.31,175.7,551.31,169.14,555.68,175.07Z"/><path class="cls-9" d="M482.67,337.78c-18.14,15.2-9.49,36.38-9.49,36.38h0a44.74,44.74,0,0,1,7.85,3.2l-7.85-3.2h0c-20.06-6.68-65.79-16.46-65.79-16.46"/><path class="cls-9" d="M409.46,315a4.14,4.14,0,0,1,4-2.08c13.71,1.36,54.3,18.46,69.19,24.9,3.48,1.5,5.56,2.42,5.56,2.42"/><path class="cls-16" d="M407.39,357.7c-11.07-2.44-128.08,7.75-128.08,7.75-16.49-9.82-8.55-30.1-2.53-42.9a14.56,14.56,0,0,1,12.15-8.32c32.63-2.33,107.88-4,120.53.73C405.79,321.42,396.07,341.62,407.39,357.7Z"/><path class="cls-9" d="M407.39,357.7c-11.07-2.44-128.08,8.75-128.08,8.75-20.54-12.23-12.76-34.86-8.41-44.12,25.29-2.64,124.64-12.6,138.56-7.37C405.79,321.42,396.07,341.62,407.39,357.7Z"/><path class="cls-9" d="M270.9,322.33l-5.84.62"/><path class="cls-9" d="M273.06,318.21a45.11,45.11,0,0,0-2.16,4.12"/><path class="cls-17" d="M402.89,414.7c-5.58-1-121.66-1.5-121.66-1.5-21.42-9.83-1.92-46.75-1.92-46.75s117-11.19,128.08-8.75C388.22,379.45,402.89,414.7,402.89,414.7Z"/><path class="cls-17" d="M407.39,357.7s66.59,16.67,74,21.67"/><path class="cls-9" d="M476.39,377.37s-23.09,13.91-11,43.87"/><path class="cls-10" d="M402.89,383.87s15.92,4.16,25.5,4"/><path class="cls-10" d="M333.43,428s16.31,2.17,25.8.82"/><path class="cls-10" d="M430.75,393.08s15.92,4.17,25.5,4"/><path class="cls-10" d="M410.41,398.25s15.92,4.17,25.51,4"/><path class="cls-10" d="M412.9,344.48s15.92,4.16,25.5,4"/><path class="cls-10" d="M439.23,350.31s15.92,4.17,25.51,4"/><path class="cls-10" d="M434.75,338.2s15.92,4.16,25.5,4"/><line class="cls-9" x1="273.81" y1="413.39" x2="283.43" y2="413.39"/><path class="cls-9" d="M282.62,413.39s13.47,17.31,1.19,32.75c0,0,103,.81,116.75,4.56,0,0,16.24-19.67,2.33-36,0,0,69,9.83,74.5,5.5"/><path class="cls-10" d="M310.39,435.37s67.25,1.33,86.34,3.66"/><path class="cls-10" d="M307.73,424.7s49.58-3.25,66.66,1.5"/><path class="cls-9" d="M479.89,448c-11.5-5.16-79.33,2.67-79.33,2.67s-23.38,20.87,0,48.5"/><path class="cls-9" d="M470.06,421.29s11,13.47-1.67,25"/><path class="cls-9" d="M273.18,448.32s9.88-3.29,14.63-2.15"/><path class="cls-9" d="M400.56,499.2c-10.69-5.44-124.63-3-124.63-3"/><path class="cls-9" d="M472.15,446.57s-14.84,19.63,1.41,39"/><path class="cls-10" d="M429.93,461.2c.57-.06,13.38,1.71,25.38-1.38"/><line class="cls-10" x1="402.43" y1="472.73" x2="425.93" y2="470.7"/><path class="cls-10" d="M396.73,482a273.05,273.05,0,0,0,53.2-5.75"/><path class="cls-18" d="M307.21,235.18c8.5,2.29,10.5-20.68,10.5-20.68.32-4.42,4.91-6.61,9-7.68a34,34,0,0,1,6.28-1c3.34.69,15.93-1.06,15.93-1.06,10.66-.57,12.76,7.31,12.76,7.31.9,1.93,4.93,11.29,7.59,17.5l2.41,5.62c3.24,9.69,6-.5,6-.5,1.87-2.87,9.93-30.81,9.93-30.81.34-1.86,2.32-3.08,5-3.87,6.8-2,18.08-1.2,18.08-1.2,5.53-.21,8.24,7.51,8.24,7.51,1,.69,6.88,23.58,6.88,23.58,2.38,11.71,11.92,8.84,11.92,8.84,8.46-4,8.66,12.33,8.66,12.33,1.42,10.58-5.75,7.5-5.75,7.5-8.25-.92-6.08,5-6.08,5-.38,2.73,8.07,23.68,12.23,33.8-7.52,1.64-21,5.58-21,5.58-13.44,5.81-15-21.26-15-21.26C408.58,260.62,402,262,402,262c-10.81,1.65-12.13,20.06-12.13,20.06-4.43,14.94-18.22,12.12-18.22,12.12-18.48-10.06-22.4-26.5-22.4-26.5-6.62-10.24-7,2.5-7,2.5-.75,4.5,4.75,35,4.75,35,.25,10.44-8,7.88-8,7.88-4.44-.94-15.75.38-15.75.38-13,1.43-11.38-6.26-11.38-6.26,0-2.87,4.07-36.37,4.07-36.37.25-6.75-7-5-13.19-4.37s-8.25-14.19-8.25-14.19C292.39,236.44,307.21,235.18,307.21,235.18Z"/><path class="cls-18" d="M369.24,229.56s5.59-14.12,8.41-23.62c0,0,.35-9.87,14.92-5.94-2.67.79-4.65,2-5,3.87,0,0-8.06,27.94-9.93,30.81,0,0-2.76,10.19-6,.5Z"/><path class="cls-18" d="M301.3,266.27s-4.84-26.21,5.34-23.46c0,0,11.75,3.13,14.63-6.25,0,0,5.5-23.25,5.62-33.37"/><path class="cls-5" d="M311.5,233.45c8.5,2.29,10.5-20.68,10.5-20.68.32-4.42,4.91-6.61,9-7.68a34,34,0,0,1,6.28-1c3.34.69,15.93-1.06,15.93-1.06,10.66-.57,12.76,7.31,12.76,7.31.9,1.93,4.93,11.29,7.59,17.5l2.41,5.62c3.24,9.69,6-.5,6-.5,1.87-2.87,9.93-30.81,9.93-30.81.34-1.86,2.32-3.08,5-3.87,6.8-2,18.08-1.2,18.08-1.2,5.53-.21,8.24,7.51,8.24,7.51,1,.69,6.88,23.58,6.88,23.58C432.44,239.87,442,237,442,237c8.46-4,8.66,12.33,8.66,12.33,1.42,10.58-5.75,7.5-5.75,7.5-8.25-.92-6.08,5-6.08,5-.38,2.73,8.07,23.68,12.23,33.8-7.52,1.64-21,5.58-21,5.58-13.44,5.81-15-21.26-15-21.26-2.19-21.06-8.75-19.68-8.75-19.68-10.81,1.65-12.13,20.06-12.13,20.06C389.75,295.27,376,292.45,376,292.45c-18.48-10.06-22.4-26.5-22.4-26.5-6.62-10.24-7,2.5-7,2.5-.75,4.5,4.75,35,4.75,35,.25,10.44-8,7.88-8,7.88-4.44-.94-15.75.38-15.75.38-13,1.43-11.38-6.26-11.38-6.26,0-2.87,4.07-36.37,4.07-36.37.25-6.75-7-5-13.19-4.37s-8.25-14.19-8.25-14.19C296.68,234.71,311.5,233.45,311.5,233.45Z"/><path class="cls-5" d="M454.81,295a36.42,36.42,0,0,0-3.77.68c1.36,3.3,2.27,5.45,2.27,5.45"/><path class="cls-5" d="M421.72,300.05s-13.91-3-19.28-38.28"/><path class="cls-5" d="M444.18,236.38s-12.63-2.34-13.77-6.78"/><path class="cls-5" d="M373.53,227.83s5.59-14.12,8.41-23.62c0,0,.35-9.87,14.92-5.94-2.67.79-4.65,2-5,3.87,0,0-8.06,27.94-9.93,30.81,0,0-2.76,10.19-6,.5Z"/><path class="cls-5" d="M305.59,264.54s-4.84-26.21,5.34-23.46c0,0,11.75,3.12,14.63-6.25,0,0,5.5-23.25,5.62-33.38"/><path class="cls-10" d="M158.23,467.7s114-15.09,119.34-11"/><path class="cls-10" d="M162.89,377.7s2.67-1.08,4.17,7c0,0,1.92,26.25,12.83,20.17,0,0,10.75-3,14.17-8.67"/><path class="cls-10" d="M189.89,395.87s10,43.08,9.34,58.66c0,0,.25,14.17,6,14.34"/><path class="cls-10" d="M199.21,450.7s17.61-7.38,19.85,1c0,0,4.42,14.42,9.33,11.17"/><ellipse cx="170.56" cy="467.87" rx="4" ry="9.17"/><ellipse cx="171.06" cy="440.62" rx="1.5" ry="2.42"/><ellipse class="cls-10" cx="206.81" cy="456.12" rx="1.58" ry="3.42"/><path class="cls-10" d="M466,461.86S613.31,486.7,620.06,489"/><path class="cls-10" d="M544.93,447.45s-2.31,26.25-10.75,30.87"/><path class="cls-10" d="M543,451.7s18.49-2.81,23.8-6c0,0,10.44-6.38,7.87,1.75,0,0-11.5,26.12-8.25,34.37"/><path class="cls-10" d="M559.88,448.25s2.8-9.3,2.68-11.68c0,0-6.49-3.43,0-5.5,0,0,8.62-1.37,7.5,3.63,0,0-.25,2.87-3.88,2.37,0,0-2.72,8.82-1.26,10.38"/><path class="cls-10" d="M569.24,461.86s19.44-10,23.57-11.16c0,0,8.12-3.44,6.5,2.62,0,0-11,30-5.5,32.5"/><path class="cls-10" d="M595.34,465.58s16.34-7,17.47-9.76c0,0,5.69-6.18,5.75,2.25,0,0-2.81,13.75-5.25,22,0,0-2.9,10.54,1.12,9.5"/><path class="cls-10" d="M587.22,453l1.71-9.68s-6.49-1.56-1.71-5.5c0,0,12.71-2.31,7.59,5.5,0,0,.12,1-2.88.5l-1.19,8.25"/><ellipse cx="548.62" cy="459.67" rx="0.94" ry="3.22"/><ellipse cx="556.81" cy="460.26" rx="1.13" ry="3.19"/><ellipse cx="553.43" cy="476.64" rx="1.5" ry="3.31"/><ellipse cx="582.56" cy="465.76" rx="0.88" ry="3.19"/><ellipse cx="573" cy="467.55" rx="1.06" ry="4.1"/><ellipse cx="579.43" cy="481.57" rx="1.5" ry="4.25"/><ellipse cx="603.75" cy="472.79" rx="1.19" ry="3.84"/><ellipse class="cls-1" cx="498.81" cy="499.39" rx="6" ry="3.31"/></svg>