<?xml version="1.0" encoding="iso-8859-1"?>
<!-- Generator: Adobe Illustrator 21.0.0, SVG Export Plug-In . SVG Version: 6.00 Build 0)  -->
<svg xmlns="http://www.w3.org/2000/svg" xmlns:xlink="http://www.w3.org/1999/xlink" version="1.1" id="Capa_1" x="0px" y="0px" viewBox="0 0 512 512" style="enable-background:new 0 0 512 512;" xml:space="preserve" width="512" height="512">
<g>
	<path d="M45.75,121C20.52,121,0,141.52,0,166.75v178.5C0,370.48,20.52,391,45.75,391h195.13V121H45.75z M49.01,198.297   c0-8.284,6.716-15,15-15s15,6.716,15,15v19.757c0,8.284-6.716,15-15,15s-15-6.716-15-15V198.297z M193.01,313.808   c0,8.284-6.716,15-15,15s-15-6.716-15-15v-19.756c0-8.284,6.716-15,15-15s15,6.716,15,15V313.808z M189.14,208.701L73.332,324.509   c-2.929,2.929-6.768,4.394-10.606,4.394s-7.678-1.465-10.606-4.394c-5.858-5.857-5.858-15.355,0-21.213l115.808-115.808   c5.857-5.857,15.355-5.857,21.213,0C194.998,193.346,194.998,202.844,189.14,208.701z"/>
	<path d="M466.25,121H270.88v270h195.37c25.23,0,45.75-20.52,45.75-45.75v-178.5C512,141.52,491.48,121,466.25,121z    M391.417,330.525h-59.953c-8.284,0-15-6.716-15-15s6.716-15,15-15h59.953c8.284,0,15,6.716,15,15S399.701,330.525,391.417,330.525   z M451.37,270.999H331.464c-8.284,0-15-6.716-15-15s6.716-15,15-15H451.37c8.284,0,15,6.716,15,15S459.654,270.999,451.37,270.999z    M451.37,213.297H331.464c-8.284,0-15-6.716-15-15s6.716-15,15-15H451.37c8.284,0,15,6.716,15,15S459.654,213.297,451.37,213.297z"/>
</g>















</svg>
